<?xml version="1.0" encoding="UTF-8" standalone="no"?>
<svg width="43px" height="29px" viewBox="0 0 43 29" version="1.1" xmlns="http://www.w3.org/2000/svg" xmlns:xlink="http://www.w3.org/1999/xlink">
    <!-- Generator: Sketch 39.1 (31720) - http://www.bohemiancoding.com/sketch -->
    <title>Slice 1</title>
    <desc>Created with Sketch.</desc>
    <defs></defs>
    <g id="Page-1" stroke="none" stroke-width="1" fill="none" fill-rule="evenodd">
        <g id="Shape" fill="#FFFFFF">
            <path d="M32.5,29 C29.065,29 25.764,27.942 22.951,25.94 C22.801,25.833 22.721,25.65 22.745,25.467 C22.769,25.284 22.893,25.128 23.067,25.064 C27.213,23.529 27.882,22.283 27.882,19.895 C27.882,19.264 27.74,19.057 27.484,18.681 C27.145,18.187 26.681,17.51 26.355,15.742 C26.307,15.488 26.266,15.468 26.039,15.358 C25.433,15.066 24.876,14.646 24.73,12.73 C24.73,11.802 25.05,11.289 25.315,11.022 C25.257,10.692 25.162,10.123 25.073,9.503 C24.62,6.726 24.6,3.325 28.506,1.744 C31.91,0.364 34.627,1.118 35.48,2.017 C36.084,2.036 37.642,2.194 38.726,3.455 C40.394,5.395 39.863,9.818 39.681,11.017 C39.947,11.278 40.27,11.784 40.27,12.692 C40.124,14.646 39.567,15.067 38.96,15.358 C38.732,15.468 38.691,15.487 38.644,15.742 C38.318,17.51 37.855,18.187 37.516,18.681 C37.259,19.056 37.118,19.264 37.118,19.895 C37.118,22.283 37.787,23.529 41.933,25.064 C42.107,25.128 42.231,25.283 42.255,25.467 C42.279,25.651 42.199,25.833 42.049,25.94 C39.236,27.942 35.935,29 32.5,29 L32.5,29 L32.5,29 Z M24.317,25.651 C26.779,27.191 29.589,28 32.5,28 C35.411,28 38.221,27.191 40.683,25.651 C37.209,24.225 36.118,22.787 36.118,19.896 C36.118,18.955 36.396,18.548 36.691,18.117 C36.995,17.673 37.373,17.121 37.662,15.561 C37.801,14.807 38.238,14.597 38.527,14.458 C38.838,14.309 39.158,14.155 39.271,12.655 C39.27,11.891 38.927,11.683 38.913,11.675 C38.729,11.569 38.61,11.346 38.649,11.138 C38.897,9.809 39.305,5.664 37.968,4.107 C37.055,3.045 35.616,3.016 35.342,3.027 C35.296,3.023 35.251,3.022 35.208,3.011 C35.078,2.978 34.858,2.865 34.791,2.749 C34.519,2.283 32.15,1.346 28.881,2.669 C25.65,3.977 25.643,6.781 26.062,9.351 C26.2,10.308 26.351,11.135 26.352,11.139 C26.393,11.364 26.276,11.588 26.069,11.683 L26.069,11.683 C26.072,11.683 25.73,11.892 25.73,12.691 C25.842,14.152 26.163,14.307 26.473,14.456 C26.762,14.595 27.2,14.805 27.339,15.559 C27.627,17.119 28.005,17.671 28.309,18.115 C28.605,18.546 28.883,18.953 28.883,19.894 C28.883,22.788 27.792,24.226 24.317,25.651 L24.317,25.651 L24.317,25.651 Z"></path>
            <path d="M11.5,29 C7.631,29 3.866,27.628 0.899,25.136 C0.767,25.026 0.702,24.855 0.725,24.684 C0.748,24.513 0.859,24.367 1.015,24.297 C1.428,24.112 1.882,23.926 2.391,23.741 C5.022,22.783 6.32,21.941 6.878,20.778 C1.96,19.553 1.38,16.519 1.357,16.385 C1.324,16.188 1.41,15.99 1.577,15.881 C1.676,15.816 4.031,14.202 4.031,10.07 C4.031,5.577 4.919,0.985 11.5,0.985 C18.081,0.985 18.969,5.578 18.969,10.07 C18.969,14.202 21.324,15.816 21.425,15.883 C21.589,15.992 21.676,16.191 21.643,16.385 C21.62,16.518 21.039,19.553 16.122,20.778 C16.681,21.941 17.978,22.782 20.608,23.741 C21.117,23.926 21.572,24.112 21.984,24.298 C22.141,24.369 22.251,24.515 22.274,24.685 C22.297,24.855 22.232,25.026 22.1,25.137 C19.135,27.628 15.37,29 11.5,29 L11.5,29 L11.5,29 Z M2.191,24.887 C4.868,26.9 8.143,28 11.5,28 C14.858,28 18.133,26.9 20.809,24.887 C20.636,24.818 20.455,24.75 20.267,24.681 C16.927,23.464 15.492,22.347 14.971,20.558 C14.932,20.424 14.951,20.28 15.023,20.161 C15.095,20.041 15.214,19.957 15.35,19.929 C19.236,19.127 20.305,17.21 20.575,16.489 C19.827,15.859 17.97,13.907 17.97,10.071 C17.97,5.218 16.87,1.986 11.501,1.986 C6.132,1.986 5.032,5.218 5.032,10.071 C5.032,13.907 3.174,15.859 2.427,16.489 C2.695,17.206 3.762,19.126 7.651,19.928 C7.788,19.956 7.907,20.04 7.979,20.159 C8.05,20.279 8.07,20.423 8.031,20.556 C7.511,22.345 6.076,23.463 2.735,24.68 L2.735,24.68 C2.545,24.75 2.365,24.818 2.191,24.887 L2.191,24.887 L2.191,24.887 Z"></path>
        </g>
    </g>
</svg>