<?xml version="1.0" encoding="UTF-8" standalone="no"?>
<svg width="393px" height="358px" viewBox="0 0 393 358" version="1.1" xmlns="http://www.w3.org/2000/svg" xmlns:xlink="http://www.w3.org/1999/xlink">
    <!-- Generator: Sketch 39.1 (31720) - http://www.bohemiancoding.com/sketch -->
    <title>Slice 1</title>
    <desc>Created with Sketch.</desc>
    <defs></defs>
    <g id="Page-1" stroke="none" stroke-width="1" fill="none" fill-rule="evenodd">
        <path d="M368.62,0.951 L23.568,0.951 C10.57,0.951 0,11.524 0,24.52 L0,333.666 C0,346.662 10.57,357.234 23.568,357.234 L368.621,357.234 C381.615,357.234 392.185,346.662 392.185,333.666 L392.185,24.52 C392.188,11.525 381.614,0.951 368.62,0.951 L368.62,0.951 Z M297.56,40.528 C297.56,35.722 301.456,31.825 306.261,31.825 L314.964,31.825 C319.772,31.825 323.665,35.721 323.665,40.528 L323.665,50.391 C323.665,55.197 319.769,59.093 314.964,59.093 L306.261,59.093 C301.456,59.093 297.56,55.197 297.56,50.391 L297.56,40.528 L297.56,40.528 Z M257.093,40.528 C257.093,35.722 260.991,31.825 265.796,31.825 L274.497,31.825 C279.302,31.825 283.2,35.721 283.2,40.528 L283.2,50.391 C283.2,55.197 279.302,59.093 274.497,59.093 L265.796,59.093 C260.991,59.093 257.093,55.197 257.093,50.391 L257.093,40.528 L257.093,40.528 Z M363.903,328.951 L28.282,328.951 L28.282,85.235 L363.903,85.235 L363.903,328.951 L363.903,328.951 L363.903,328.951 Z M364.132,50.391 C364.132,55.197 360.236,59.093 355.431,59.093 L346.728,59.093 C341.919,59.093 338.026,55.197 338.026,50.391 L338.026,40.528 C338.026,35.722 341.922,31.825 346.728,31.825 L355.431,31.825 C360.237,31.825 364.132,35.721 364.132,40.528 L364.132,50.391 L364.132,50.391 Z" id="Shape" fill="#FFFFFF"></path>
        <path d="M84.185,216.284 L147.269,245.62 C148.9,246.375 150.636,246.758 152.431,246.758 C154.769,246.758 157.048,246.094 159.029,244.834 C162.576,242.567 164.695,238.704 164.695,234.5 L164.695,234.178 C164.695,229.426 161.91,225.062 157.599,223.06 L118.144,204.728 L157.599,186.394 C161.91,184.39 164.695,180.027 164.695,175.277 L164.695,174.958 C164.695,170.748 162.576,166.883 159.029,164.624 C157.068,163.371 154.783,162.708 152.424,162.708 C150.645,162.708 148.861,163.099 147.264,163.841 L84.184,193.174 C79.877,195.178 77.094,199.543 77.094,204.291 L77.094,205.168 C77.093,209.909 79.874,214.272 84.185,216.284 L84.185,216.284 Z" id="Shape" fill="#FFFFFF"></path>
        <path d="M165.257,276.036 C167.558,279.185 171.259,281.066 175.157,281.066 L175.473,281.066 C180.825,281.066 185.514,277.64 187.145,272.549 L228.7,143.788 C229.892,140.072 229.231,135.97 226.929,132.815 C224.628,129.665 220.927,127.785 217.028,127.785 L216.713,127.785 C211.359,127.785 206.665,131.21 205.034,136.301 L163.475,265.072 C162.292,268.793 162.958,272.889 165.257,276.036 L165.257,276.036 Z" id="Shape" fill="#FFFFFF"></path>
        <path d="M227.49,175.276 C227.49,180.021 230.273,184.385 234.585,186.399 L274.04,204.728 L234.585,223.058 C230.275,225.062 227.49,229.426 227.49,234.176 L227.49,234.498 C227.49,238.703 229.607,242.566 233.158,244.834 C235.132,246.092 237.412,246.758 239.753,246.758 C241.546,246.758 243.281,246.375 244.923,245.616 L308.003,216.281 C312.31,214.272 315.093,209.909 315.093,205.166 L315.093,204.289 C315.093,199.541 312.31,195.176 307.999,193.172 L244.919,163.839 C243.328,163.099 241.546,162.708 239.767,162.708 C237.412,162.708 235.124,163.369 233.163,164.62 C229.612,166.883 227.493,170.747 227.493,174.957 L227.493,175.275 L227.49,175.275 L227.49,175.276 L227.49,175.276 Z" id="Shape" fill="#FFFFFF"></path>
    </g>
</svg>