<?xml version="1.0" encoding="UTF-8" standalone="no"?>
<svg width="472px" height="491px" viewBox="0 0 472 491" version="1.1" xmlns="http://www.w3.org/2000/svg" xmlns:xlink="http://www.w3.org/1999/xlink">
    <!-- Generator: Sketch 39.1 (31720) - http://www.bohemiancoding.com/sketch -->
    <title>Slice 1</title>
    <desc>Created with Sketch.</desc>
    <defs></defs>
    <g id="Page-1" stroke="none" stroke-width="1" fill="none" fill-rule="evenodd">
        <path d="M87.701,148.775 C84.875,143.51 80.847,139.016 76.038,135.449 C70.357,131.234 63.58,128.36 56.036,127.611 C55.972,127.605 55.914,127.58 55.849,127.574 C53.964,127.38 52.134,127.503 50.296,127.57 C61.163,130.614 70.741,137.994 75.963,148.984 L91.405,181.458 L101.767,203.248 L133.627,200.244 L140.609,188.91 L125.958,192.752 L87.701,148.775 L87.701,148.775 Z" id="Shape" fill="#FFFFFF"></path>
        <path d="M213.552,175.65 L188.554,160.246 C187.028,159.306 185.282,158.816 183.51,158.816 C182.775,158.816 182.033,158.903 181.298,159.076 C178.824,159.669 176.683,161.218 175.348,163.383 L152.451,200.552 C169.131,204.207 182.378,218.189 184.073,236.125 C184.257,238.07 184.127,239.961 184.037,241.858 L216.69,188.856 C219.471,184.343 218.064,178.431 213.552,175.65 L213.552,175.65 Z" id="Shape" fill="#FFFFFF"></path>
        <path d="M69.328,316.453 C75.699,310.038 80.067,301.557 80.982,291.851 L81.492,286.448 L81.187,286.476 C79.907,286.603 78.634,286.658 77.37,286.658 C61.879,286.658 47.59,277.767 40.841,263.573 L8.741,196.079 L0.416,284.247 C-0.52,294.16 2.353,303.468 7.628,311.045 L33.878,387.978 L24.378,457.898 C22.268,473.404 33.127,487.677 48.625,489.779 C49.921,489.961 51.209,490.04 52.482,490.04 C66.431,490.04 78.578,479.734 80.506,465.532 L90.907,388.981 C91.5,384.618 91.073,380.177 89.651,376.02 L69.328,316.453 L69.328,316.453 Z" id="Shape" fill="#FFFFFF"></path>
        <path d="M90.016,117.447 C116.776,110.476 132.82,83.123 125.848,56.362 C118.879,29.602 91.534,13.558 64.773,20.53 C38.013,27.5 21.969,54.854 28.939,81.614 C35.91,108.373 63.257,124.416 90.016,117.447 L90.016,117.447 Z" id="Shape" fill="#FFFFFF"></path>
        <path d="M141.506,215.759 L92.016,220.43 L61.344,155.94 C55.582,143.824 41.072,138.679 28.996,144.44 C16.88,150.194 11.735,164.68 17.497,176.788 L55.464,256.618 C59.51,265.138 68.085,270.472 77.38,270.472 C78.139,270.472 78.905,270.441 79.672,270.362 L146.075,264.094 C159.424,262.838 169.223,250.99 167.959,237.642 C166.701,224.286 154.759,214.36 141.506,215.759 L141.506,215.759 Z" id="Shape" fill="#FFFFFF"></path>
        <path d="M471.624,284.248 L460.275,164.056 C458.172,141.801 438.28,125.306 416.191,127.575 C400.621,129.046 388.108,139.235 382.624,152.797 L386.175,149.554 C402.677,134.498 428.276,135.636 443.339,152.138 C458.41,168.64 457.257,194.231 440.754,209.302 L387.829,257.645 L391.058,291.852 C391.973,301.558 396.342,310.039 402.713,316.454 L382.389,376.021 C380.966,380.178 380.539,384.62 381.132,388.982 L391.533,465.533 C393.461,479.735 405.609,490.041 419.558,490.041 C420.83,490.041 422.119,489.962 423.414,489.78 C438.913,487.678 449.771,473.405 447.662,457.899 L438.162,387.979 L464.413,311.046 C469.688,303.469 472.56,294.161 471.624,284.248 L471.624,284.248 Z" id="Shape" fill="#FFFFFF"></path>
        <path d="M382.025,117.447 C408.785,124.417 436.131,108.373 443.1,81.613 C450.072,54.853 434.028,27.499 407.269,20.529 C380.506,13.557 353.163,29.601 346.191,56.361 C339.222,83.123 355.264,110.476 382.025,117.447 L382.025,117.447 Z" id="Shape" fill="#FFFFFF"></path>
        <path d="M431.388,163.052 C422.346,153.165 406.975,152.454 397.088,161.503 L345.259,208.844 L279.709,208.844 C266.297,208.844 255.431,219.71 255.431,233.122 C255.431,246.534 266.298,257.401 279.709,257.401 L354.679,257.401 C360.741,257.401 366.581,255.133 371.054,251.047 L429.838,197.352 C439.742,188.311 440.43,172.955 431.388,163.052 L431.388,163.052 Z" id="Shape" fill="#FFFFFF"></path>
        <path d="M274.478,89.441 C274.478,74.218 266.36,64.932 246.23,57.829 C231.864,52.414 225.943,48.865 225.943,43.285 C225.943,38.543 229.492,33.818 240.494,33.818 C246.633,33.818 251.66,34.806 255.699,36.023 C258.133,36.766 260.773,36.464 262.986,35.216 C265.199,33.966 266.81,31.866 267.444,29.4 L267.603,28.792 C268.906,23.702 265.871,18.51 260.796,17.143 C256.546,15.997 251.447,15.158 245.219,14.881 L245.219,8.282 C245.219,3.707 241.512,0 236.936,0 C232.353,0 228.646,3.707 228.646,8.282 L228.646,16.059 C210.554,19.607 200.076,31.28 200.076,46.155 C200.076,62.553 212.413,71.01 230.504,77.104 C243.023,81.324 248.436,85.386 248.436,91.804 C248.436,98.568 241.838,102.3 232.202,102.3 C225.359,102.3 218.911,100.917 213.299,98.941 C210.895,98.087 208.241,98.3 205.996,99.502 C203.743,100.703 202.1,102.79 201.467,105.255 L201.31,105.88 C199.918,111.317 203.032,116.889 208.392,118.565 C214.089,120.343 220.886,121.6 227.801,121.907 L227.801,129.693 C227.801,134.269 231.507,137.976 236.083,137.976 C240.667,137.976 244.374,134.269 244.374,129.693 L244.374,120.723 C263.816,117.348 274.478,104.489 274.478,89.441 L274.478,89.441 Z" id="Shape" fill="#FFFFFF"></path>
    </g>
</svg>