<?xml version="1.0" encoding="UTF-8" standalone="no"?>
<svg width="101px" height="54px" viewBox="0 0 101 54" version="1.1" xmlns="http://www.w3.org/2000/svg" xmlns:xlink="http://www.w3.org/1999/xlink">
    <!-- Generator: Sketch 39.1 (31720) - http://www.bohemiancoding.com/sketch -->
    <title>Slice 1</title>
    <desc>Created with Sketch.</desc>
    <defs></defs>
    <g id="Page-1" stroke="none" stroke-width="1" fill="none" fill-rule="evenodd">
        <path d="M64.914,1.773 C64.882,1.689 64.864,1.598 64.864,1.504 C64.864,1.1 65.189,0.772 65.594,0.772 L80.14,0.772 C80.458,0.772 80.73,0.976 80.83,1.262 L100.571,52.782 C100.597,52.859 100.611,52.941 100.611,53.026 C100.611,53.431 100.285,53.757 99.879,53.757 L85.332,53.757 C85.023,53.757 84.758,53.566 84.653,53.294 L64.914,1.773" id="Fill-20" fill="#FFFFFF"></path>
        <path d="M70.358,52.784 C70.387,52.859 70.402,52.941 70.402,53.026 C70.402,53.431 70.075,53.757 69.669,53.757 L55.125,53.757 C54.723,53.757 54.394,53.431 54.394,53.026 C54.394,52.938 54.413,52.852 54.44,52.774 L61.714,33.793 C61.818,33.517 62.083,33.323 62.397,33.323 C62.706,33.323 62.971,33.513 63.077,33.784 L70.358,52.784" id="Fill-21" fill="#FFFFFF"></path>
        <path d="M10.526,1.773 C10.494,1.689 10.476,1.598 10.476,1.504 C10.476,1.1 10.803,0.772 11.207,0.772 L25.751,0.772 C26.071,0.772 26.341,0.976 26.442,1.262 L46.183,52.782 C46.211,52.859 46.223,52.941 46.223,53.026 C46.223,53.431 45.898,53.757 45.492,53.757 L30.945,53.757 C30.636,53.757 30.372,53.566 30.264,53.294 L10.526,1.773" id="Fill-22" fill="#FFFFFF"></path>
        <path d="M15.966,52.784 C15.992,52.859 16.007,52.941 16.007,53.026 C16.007,53.431 15.679,53.757 15.275,53.757 L0.731,53.757 C0.326,53.757 0,53.431 0,53.026 C0,52.938 0.016,52.852 0.045,52.774 L7.317,33.793 C7.422,33.517 7.687,33.323 8.001,33.323 C8.312,33.323 8.575,33.513 8.683,33.784 L15.966,52.784" id="Fill-23" fill="#FFFFFF"></path>
    </g>
</svg>