<?xml version="1.0" encoding="UTF-8" standalone="no"?>
<svg width="200px" height="121px" viewBox="0 0 200 121" version="1.1" xmlns="http://www.w3.org/2000/svg" xmlns:xlink="http://www.w3.org/1999/xlink">
    <!-- Generator: Sketch 39.1 (31720) - http://www.bohemiancoding.com/sketch -->
    <title>Slice 1</title>
    <desc>Created with Sketch.</desc>
    <defs>
        <polygon id="path-1" points="0 0 581.102 0 581.102 856.063 0 856.063"></polygon>
    </defs>
    <g id="Page-1" stroke="none" stroke-width="1" fill="none" fill-rule="evenodd">
        <g id="layer1" transform="translate(-259.986357, -55.616380)">
            <g id="g3395" transform="translate(291.328580, 429.028000) scale(1, -1) translate(-291.328580, -429.028000) translate(0.328580, 0.528000)">
                <g id="g3397-Clipped">
                    <mask id="mask-2" fill="white">
                        <use xlink:href="#path-1"></use>
                    </mask>
                    <g id="path3401"></g>
                    <g id="g3397" mask="url(#mask-2)">
                        <g transform="translate(259.000000, 681.000000)" id="g3403">
                            <g transform="translate(0.574200, 0.343990)">
                                <path d="M138,2 C139.637,1.167 142.963,0.174 147.133,0.069 C154.314,-0.087 158.221,2.627 161.125,9 L199.611,93.921 C198.027,94.758 194.49,95.697 191.639,95.75 C186.677,95.853 180.024,94.861 175.801,84.833 L163.343,55.744 L138.899,95.123 C137.315,95.594 133.46,96.272 130.662,96.272 C122.005,96.272 117.201,93.138 112.185,87.76 L88.429,62.062 L107.539,32.293 C111.077,26.862 115.722,24.094 123.273,24.094 C128.236,24.094 132.353,25.242 134.253,26.129 L111.234,60.445 L127.548,77.573 L154.314,36.001 L138,2 L138,2 Z M87.506,34.122 C87.506,27.855 85.023,24.25 72.67,24.25 C71.034,24.25 69.609,24.356 68.236,24.563 L68.236,107.604 C68.236,113.924 70.4,120.506 82.859,120.506 C84.443,120.506 86.027,120.35 87.506,120.035 L87.506,34.122 L87.506,34.122 Z M62.025,46.656 C62.025,34.958 54.317,26.444 38.637,24.771 C27.287,23.57 10.868,24.981 3.054,25.87 C2.791,27.122 2.58,28.689 2.58,29.943 C2.58,40.127 8.123,42.477 13.349,42.477 C18.788,42.477 27.34,41.538 33.676,41.538 C40.696,41.538 42.808,43.887 42.808,46.132 C42.808,49.059 40.01,50.258 34.573,51.304 L19.684,54.125 C7.33,56.475 0.732,64.936 0.732,73.918 C0.732,84.833 8.545,93.974 23.908,95.644 C35.522,96.899 49.671,95.488 57.432,94.548 C57.696,93.244 57.854,91.989 57.854,90.631 C57.854,80.448 52.416,78.253 47.19,78.253 C43.177,78.253 36.948,78.984 29.821,78.984 C22.588,78.984 19.579,76.999 19.579,74.598 C19.579,72.039 22.43,70.994 26.97,70.21 L41.171,67.599 C55.742,64.936 62.025,56.735 62.025,46.656 L62.025,46.656 Z" id="path3405" fill="#FFFFFF"></path>
                            </g>
                        </g>
                    </g>
                </g>
            </g>
        </g>
    </g>
</svg>